<svg viewBox="0 0 35 24" xmlns="http://www.w3.org/2000/svg">
<path fill-rule="evenodd" clip-rule="evenodd" d="M30.5376 0.716558C32.0128 1.11082 33.1747 2.27244 33.569 3.7476C34.2855 6.42135 34.2855 12 34.2855 12C34.2855 12 34.2855 17.5786 33.569 20.2521C33.1747 21.7273 32.0128 22.8892 30.5376 23.2834C27.8639 24 17.1426 24 17.1426 24C17.1426 24 6.42135 24 3.7476 23.2834C2.27244 22.8892 1.11054 21.7273 0.716275 20.2521C0 17.5786 0 12 0 12C0 12 0 6.42135 0.716275 3.7476C1.11054 2.27244 2.27244 1.11082 3.7476 0.716558C6.42135 0 17.1426 0 17.1426 0C17.1426 0 27.8639 0 30.5376 0.716558ZM22.6214 12L13.714 17.1429V6.85706L22.6214 12Z"/>
</svg>
